<?xml version="1.0" standalone="no"?><!DOCTYPE svg PUBLIC "-//W3C//DTD SVG 1.1//EN" "http://www.w3.org/Graphics/SVG/1.1/DTD/svg11.dtd"><svg t="1755011930822" class="icon" viewBox="0 0 1024 1024" version="1.1" xmlns="http://www.w3.org/2000/svg" p-id="7769" width="256" height="256" xmlns:xlink="http://www.w3.org/1999/xlink"><path d="M511.8194 511.8194m-493.759435 0a493.759436 493.759436 0 1 0 987.518871 0 493.759436 493.759436 0 1 0-987.518871 0Z" fill="#FFFFFF" p-id="7770"></path><path d="M511.8194 36.119929c127.142152 0 246.699118 49.484303 336.276544 139.422928s139.422928 209.495591 139.422927 336.276543-49.484303 246.699118-139.422927 336.276544-209.495591 139.422928-336.276544 139.422927-246.699118-49.484303-336.276543-139.422927S36.119929 638.961552 36.119929 511.8194s49.484303-246.699118 139.422928-336.276543S384.677249 36.119929 511.8194 36.119929m0-36.119929C229.361552 0 0 229.361552 0 511.8194s229.361552 511.8194 511.8194 511.819401S1024 794.638448 1024 511.8194 794.638448 0 511.8194 0z" fill="#47A736" p-id="7771"></path><path d="M703.977425 538.548148c-31.424339 0-51.651499-10.47478-64.293474-23.839153-12.641975 13.003175-32.869136 23.839153-64.293475 23.839153-31.063139 0-51.2903-10.47478-63.932275-23.477954-12.641975 13.003175-32.869136 23.477954-63.932275 23.477954-31.424339 0-51.651499-10.47478-64.293475-23.839153-12.641975 13.003175-32.869136 23.839153-64.293474 23.839153-9.029982 0-17.337566-0.722399-24.922751-2.528395-18.421164-3.973192-34.313933-15.892769-43.705115-32.869136-9.391182-16.976367-10.835979-36.842328-4.334391-54.902292L292.571429 320.383774c9.391182-26.367549 34.675132-44.427513 62.848677-44.427513H668.218695c28.173545 0 53.457496 17.698765 62.848677 44.427513l45.872311 127.864551c6.501587 18.059965 4.695591 38.287125-4.334392 54.902292-9.391182 16.615168-25.283951 28.534744-43.705115 32.507937-7.585185 2.167196-15.892769 2.889594-24.922751 2.889594z m-64.293474-80.547443h0.722398c9.391182 0 17.337566 7.223986 18.059965 16.615168 0.361199 4.334392 5.417989 27.812346 45.87231 27.812346 6.140388 0 11.919577-0.722399 16.976367-1.805997 8.668783-1.805996 15.53157-7.223986 19.865961-14.809171 4.334392-7.946384 5.05679-16.976367 2.167196-25.28395l-45.87231-127.864551c-4.334392-12.280776-15.892769-20.58836-28.895944-20.58836H355.420106c-13.003175 0-24.561552 8.307584-28.895944 20.58836l-45.87231 127.864551c-2.889594 8.307584-2.167196 17.698765 2.167196 25.28395 4.334392 7.585185 11.197178 13.003175 19.865961 14.809171 5.05679 1.083598 10.835979 1.805996 16.976367 1.805997 42.982716 0 45.87231-26.728748 45.87231-27.812346 0.722399-9.391182 8.668783-16.615168 18.059965-16.615168h0.722398c9.391182 0 17.337566 7.223986 18.059965 16.615168 0.361199 4.334392 5.417989 27.812346 45.872311 27.812346 42.982716 0 45.87231-26.728748 45.87231-27.812346 0.722399-9.391182 8.668783-16.976367 18.421164-16.976367 9.391182 0 17.337566 7.223986 17.698765 16.976367 0.361199 4.334392 5.417989 27.812346 45.872311 27.812346s45.149912-23.477954 45.87231-28.173545c0.361199-9.391182 8.307584-16.253968 17.698766-16.253969z" fill="#47A736" p-id="7772"></path><path d="M681.944268 748.043739H342.055732c-26.367549 0-48.039506-21.671958-48.039506-48.039506v-179.15485c0-10.11358 7.946384-18.059965 18.059964-18.059965s18.059965 7.946384 18.059965 18.059965v179.15485c0 6.501587 5.417989 11.919577 11.919577 11.919577h339.888536c6.501587 0 11.919577-5.417989 11.919577-11.919577v-179.15485c0-10.11358 7.946384-18.059965 18.059965-18.059965s18.059965 7.946384 18.059964 18.059965v179.15485c0 26.367549-21.671958 48.039506-48.039506 48.039506z" fill="#47A736" p-id="7773"></path><path d="M661.717108 554.440917m-87.04903 0a87.04903 87.04903 0 1 0 174.09806 0 87.04903 87.04903 0 1 0-174.09806 0Z" fill="#FFFFFF" p-id="7774"></path><path d="M661.717108 659.549912c-58.153086 0-105.108995-47.317108-105.108995-105.108995s47.317108-105.108995 105.108995-105.108995c58.153086 0 105.108995 47.317108 105.108994 105.108995s-47.317108 105.108995-105.108994 105.108995z m0-174.459259c-37.925926 0-68.989065 31.063139-68.989066 68.989065s31.063139 68.989065 68.989066 68.989065 68.989065-31.063139 68.989065-68.989065-31.063139-68.989065-68.989065-68.989065z" fill="#47A736" p-id="7775"></path><path d="M722.759788 630.292769l33.230335 44.427513" fill="#FFFFFF" p-id="7776"></path><path d="M755.990123 692.780247c-5.417989 0-10.835979-2.528395-14.447971-7.223986l-33.230335-44.427513c-6.140388-7.946384-4.334392-19.143563 3.611993-25.283951 7.946384-6.140388 19.143563-4.334392 25.28395 3.611993l33.230335 44.427513c6.140388 7.946384 4.334392 19.143563-3.611993 25.283951-3.250794 2.528395-6.862787 3.611993-10.835979 3.611993z" fill="#47A736" p-id="7777"></path></svg>